<?xml version="1.0" standalone="no"?>
<!DOCTYPE svg PUBLIC "-//W3C//DTD SVG 1.1//EN" "http://www.w3.org/Graphics/SVG/1.1/DTD/svg11.dtd">
<svg t="1604385405361" class="icon" viewBox="0 0 1024 1024" version="1.1" xmlns="http://www.w3.org/2000/svg" p-id="2856" xmlns:xlink="http://www.w3.org/1999/xlink"><defs><style type="text/css"></style></defs><path d="M69.818182 158.906182c0-29.277091 24.762182-52.968727 55.249454-52.968727h276.386909V52.968727C401.454545 23.691636 426.216727 0 456.704 0h110.592c30.487273 0 55.249455 23.691636 55.249455 52.968727v52.968728h276.340363c30.533818 0 55.296 23.691636 55.296 52.968727v52.968727H69.818182V158.906182z m829.067636 158.906182v653.218909c0 29.277091-24.715636 52.968727-55.249454 52.968727H180.363636c-30.533818 0-55.296-23.691636-55.296-52.968727V264.843636h773.818182v52.968728zM346.158545 423.703273c0-29.230545-24.715636-52.922182-55.249454-52.922182s-55.296 23.691636-55.296 52.922182v441.390545c0 29.277091 24.762182 52.968727 55.296 52.968727 30.533818 0 55.249455-23.691636 55.249454-52.968727V423.703273z m221.137455 0c0-29.230545-24.762182-52.922182-55.296-52.922182-30.533818 0-55.296 23.691636-55.296 52.922182v441.390545c0 29.277091 24.762182 52.968727 55.296 52.968727 30.533818 0 55.296-23.691636 55.296-52.968727V423.703273z m221.090909 0c0-29.230545-24.762182-52.922182-55.296-52.922182-30.533818 0-55.249455 23.691636-55.249454 52.922182v441.390545c0 29.277091 24.715636 52.968727 55.249454 52.968727s55.296-23.691636 55.296-52.968727V423.703273z" fill="#EB7474" p-id="2857">
</path></svg>