<svg width="13" height="10" viewBox="0 0 13 10" fill="none" xmlns="http://www.w3.org/2000/svg">
<path id="Vector" d="M11.245 0C11.3972 7.8615e-05 11.5465 0.0414342 11.677 0.119662C11.8076 0.19789 11.9144 0.31006 11.9863 0.444226C12.0581 0.578393 12.0922 0.72953 12.0849 0.881541C12.0776 1.03355 12.0293 1.18075 11.945 1.30744L6.78587 9.04609C6.70904 9.16131 6.60495 9.25579 6.48284 9.32114C6.36072 9.38648 6.22437 9.42067 6.08588 9.42067C5.94738 9.42067 5.81103 9.38648 5.68892 9.32114C5.56681 9.25579 5.46272 9.16131 5.38588 9.04609L0.226787 1.30744C0.142477 1.18075 0.0941095 1.03355 0.0868377 0.881541C0.0795658 0.72953 0.113661 0.578393 0.185493 0.444226C0.257325 0.31006 0.364202 0.19789 0.494742 0.119662C0.625282 0.0414342 0.774597 7.86132e-05 0.926782 0L11.245 0Z" fill="#F8F8F8"/>
</svg>
