<svg width="12" height="12" viewBox="0 0 12 12" fill="none" xmlns="http://www.w3.org/2000/svg">
<g id="svg / delete" clip-path="url(#clip0)">
<g id="Vector">
<mask id="path-1-outside-1" maskUnits="userSpaceOnUse" x="2.375" y="-0.990601" width="7" height="11" fill="black">
<rect fill="white" x="2.375" y="-0.990601" width="7" height="11"/>
<path d="M8.36015 9.09729C8.2289 9.09729 8.12343 8.98713 8.12343 8.8512V4.18479C8.12343 4.05002 8.2289 3.93987 8.36015 3.93987C8.49023 3.93987 8.59687 4.05002 8.59687 4.18479V8.8512C8.59687 8.98713 8.49023 9.09729 8.36015 9.09729ZM5.98594 9.09729C5.85586 9.09729 5.74922 8.98713 5.74922 8.8512V4.18479C5.74922 4.05002 5.85586 3.93987 5.98594 3.93987C6.11719 3.93987 6.22265 4.05002 6.22265 4.18479V8.8512C6.22265 8.98713 6.11601 9.09729 5.98594 9.09729ZM3.61172 9.09729C3.48047 9.09729 3.375 8.98713 3.375 8.8512V4.18479C3.375 4.05002 3.48047 3.93987 3.61172 3.93987C3.74297 3.93987 3.84844 4.05002 3.84844 4.18479V8.8512C3.84844 8.98713 3.74297 9.09729 3.61172 9.09729ZM7.56914 0.499243C7.71914 0.499243 7.88671 0.700806 7.88671 0.990259V1.7262H4.08516V0.991431C4.08516 0.701977 4.25273 0.500415 4.40273 0.500415H7.56914V0.499243ZM7.56914 0.00939941H4.40273C3.96562 0.00939941 3.61172 0.448852 3.61172 0.992602V2.22073H8.36015V0.992602C8.36015 0.448852 8.00507 0.00939941 7.56914 0.00939941Z"/>
</mask>
<path d="M8.36015 9.09729C8.2289 9.09729 8.12343 8.98713 8.12343 8.8512V4.18479C8.12343 4.05002 8.2289 3.93987 8.36015 3.93987C8.49023 3.93987 8.59687 4.05002 8.59687 4.18479V8.8512C8.59687 8.98713 8.49023 9.09729 8.36015 9.09729ZM5.98594 9.09729C5.85586 9.09729 5.74922 8.98713 5.74922 8.8512V4.18479C5.74922 4.05002 5.85586 3.93987 5.98594 3.93987C6.11719 3.93987 6.22265 4.05002 6.22265 4.18479V8.8512C6.22265 8.98713 6.11601 9.09729 5.98594 9.09729ZM3.61172 9.09729C3.48047 9.09729 3.375 8.98713 3.375 8.8512V4.18479C3.375 4.05002 3.48047 3.93987 3.61172 3.93987C3.74297 3.93987 3.84844 4.05002 3.84844 4.18479V8.8512C3.84844 8.98713 3.74297 9.09729 3.61172 9.09729ZM7.56914 0.499243C7.71914 0.499243 7.88671 0.700806 7.88671 0.990259V1.7262H4.08516V0.991431C4.08516 0.701977 4.25273 0.500415 4.40273 0.500415H7.56914V0.499243ZM7.56914 0.00939941H4.40273C3.96562 0.00939941 3.61172 0.448852 3.61172 0.992602V2.22073H8.36015V0.992602C8.36015 0.448852 8.00507 0.00939941 7.56914 0.00939941Z" fill="#EB7474"/>
<path d="M7.56914 0.499243V0.299243H7.36914V0.499243H7.56914ZM7.88671 1.7262V1.9262H8.08672V1.7262H7.88671ZM4.08516 1.7262H3.88516V1.9262H4.08516V1.7262ZM7.56914 0.500415V0.700415H7.76914V0.500415H7.56914ZM3.61172 2.22073H3.41172V2.42073H3.61172V2.22073ZM8.36015 2.22073V2.42073H8.56015V2.22073H8.36015ZM8.36015 8.89729C8.34687 8.89729 8.32343 8.88435 8.32343 8.8512H7.92343C7.92343 9.08992 8.11093 9.29729 8.36015 9.29729V8.89729ZM8.32343 8.8512V4.18479H7.92343V8.8512H8.32343ZM8.32343 4.18479C8.32343 4.15345 8.34627 4.13987 8.36015 4.13987V3.73987C8.11154 3.73987 7.92343 3.9466 7.92343 4.18479H8.32343ZM8.36015 4.13987C8.36728 4.13987 8.37562 4.14266 8.38352 4.15082C8.39149 4.15906 8.39687 4.17087 8.39687 4.18479H8.79687C8.79687 3.94595 8.60696 3.73987 8.36015 3.73987V4.13987ZM8.39687 4.18479V8.8512H8.79687V4.18479H8.39687ZM8.39687 8.8512C8.39687 8.88369 8.37289 8.89729 8.36015 8.89729V9.29729C8.60757 9.29729 8.79687 9.09058 8.79687 8.8512H8.39687ZM5.98594 8.89729C5.9732 8.89729 5.94922 8.88369 5.94922 8.8512H5.54922C5.54922 9.09058 5.73852 9.29729 5.98594 9.29729V8.89729ZM5.94922 8.8512V4.18479H5.54922V8.8512H5.94922ZM5.94922 4.18479C5.94922 4.17087 5.9546 4.15906 5.96257 4.15082C5.97046 4.14266 5.97881 4.13987 5.98594 4.13987V3.73987C5.73913 3.73987 5.54922 3.94595 5.54922 4.18479H5.94922ZM5.98594 4.13987C5.99982 4.13987 6.02265 4.15345 6.02265 4.18479H6.42265C6.42265 3.9466 6.23455 3.73987 5.98594 3.73987V4.13987ZM6.02265 4.18479V8.8512H6.42265V4.18479H6.02265ZM6.02265 8.8512C6.02265 8.88369 5.99867 8.89729 5.98594 8.89729V9.29729C6.23335 9.29729 6.42265 9.09058 6.42265 8.8512H6.02265ZM3.61172 8.89729C3.59844 8.89729 3.575 8.88435 3.575 8.8512H3.175C3.175 9.08992 3.3625 9.29729 3.61172 9.29729V8.89729ZM3.575 8.8512V4.18479H3.175V8.8512H3.575ZM3.575 4.18479C3.575 4.15345 3.59783 4.13987 3.61172 4.13987V3.73987C3.36311 3.73987 3.175 3.9466 3.175 4.18479H3.575ZM3.61172 4.13987C3.6256 4.13987 3.64844 4.15345 3.64844 4.18479H4.04844C4.04844 3.9466 3.86033 3.73987 3.61172 3.73987V4.13987ZM3.64844 4.18479V8.8512H4.04844V4.18479H3.64844ZM3.64844 8.8512C3.64844 8.88435 3.625 8.89729 3.61172 8.89729V9.29729C3.86094 9.29729 4.04844 9.08992 4.04844 8.8512H3.64844ZM7.56914 0.699243C7.555 0.699243 7.58095 0.69468 7.62037 0.750954C7.65566 0.801335 7.68672 0.883344 7.68672 0.990259H8.08672C8.08672 0.80772 8.03398 0.644222 7.94798 0.521458C7.86612 0.404588 7.73327 0.299243 7.56914 0.299243V0.699243ZM7.68672 0.990259V1.7262H8.08672V0.990259H7.68672ZM7.88671 1.5262H4.08516V1.9262H7.88671V1.5262ZM4.28516 1.7262V0.991431H3.88516V1.7262H4.28516ZM4.28516 0.991431C4.28516 0.884516 4.31621 0.802507 4.3515 0.752126C4.39092 0.695852 4.41687 0.700415 4.40273 0.700415V0.300415C4.2386 0.300415 4.10576 0.40576 4.02389 0.52263C3.93789 0.645393 3.88516 0.808892 3.88516 0.991431H4.28516ZM4.40273 0.700415H7.56914V0.300415H4.40273V0.700415ZM7.76914 0.500415V0.499243H7.36914V0.500415H7.76914ZM7.56914 -0.190601H4.40273V0.209399H7.56914V-0.190601ZM4.40273 -0.190601C3.8168 -0.190601 3.41172 0.38114 3.41172 0.992602H3.81172C3.81172 0.516565 4.11445 0.209399 4.40273 0.209399V-0.190601ZM3.41172 0.992602V2.22073H3.81172V0.992602H3.41172ZM3.61172 2.42073H8.36015V2.02073H3.61172V2.42073ZM8.56015 2.22073V0.992602H8.16015V2.22073H8.56015ZM8.56015 0.992602C8.56015 0.380932 8.15373 -0.190601 7.56914 -0.190601V0.209399C7.85642 0.209399 8.16015 0.516773 8.16015 0.992602H8.56015Z" fill="#EB7474" mask="url(#path-1-outside-1)"/>
</g>
<path id="Vector_2" d="M11.8457 1.97416C11.8455 1.78787 11.6987 1.62968 11.509 1.62968H0.461694C0.273251 1.62968 0.124976 1.78779 0.124976 1.9746C0.124976 2.1614 0.273251 2.31952 0.461694 2.31952H11.509C11.698 2.31952 11.8471 2.16193 11.8457 1.97416ZM11.8457 1.97416C11.8457 1.97402 11.8457 1.97387 11.8457 1.97373L11.7457 1.9746H11.8457C11.8457 1.97445 11.8457 1.97431 11.8457 1.97416Z" fill="#EB7474" stroke="#EB7474" stroke-width="0.2"/>
<path id="Vector_3" d="M1.02384 1.76914H1.12384H1.59845H1.69845V1.86914V10.5492C1.69845 10.9765 1.97965 11.2883 2.28517 11.2883H9.68322C9.99 11.2883 10.2711 10.9764 10.2711 10.5492V1.86914V1.76914H10.3711H10.8457H10.9457V1.86914L10.9457 10.5491L10.9457 10.5492M1.02384 1.76914L1.12384 10.548C1.12384 11.2816 1.6465 11.8793 2.28634 11.8793H9.68439C10.3254 11.8793 10.8469 11.2828 10.8457 10.5492H10.9457M1.02384 1.76914V1.86914V10.548C1.02384 11.3238 1.57901 11.9793 2.28634 11.9793H9.68439C10.3928 11.9793 10.9469 11.3251 10.9457 10.5492M1.02384 1.76914L10.9457 10.5492" fill="#EB7474" stroke="#EB7474" stroke-width="0.2"/>
</g>
<defs>
<clipPath id="clip0">
<rect width="12" height="12" fill="white"/>
</clipPath>
</defs>
</svg>
