<svg viewBox="0 0 12 12" fill="none" xmlns="http://www.w3.org/2000/svg">
<g id="svg / pin" clip-path="url(#clip0)">
<path id="Vector" d="M0.701814 11.8383C0.594302 11.839 0.489039 11.8075 0.399446 11.7481C0.309853 11.6887 0.239989 11.6039 0.198761 11.5046C0.157533 11.4053 0.146809 11.296 0.167957 11.1906C0.189105 11.0852 0.241166 10.9884 0.317503 10.9127L2.61255 8.61769C2.71309 8.51703 2.83248 8.43719 2.9639 8.38271C3.09533 8.32823 3.2362 8.30018 3.37846 8.30018C3.52073 8.30018 3.6616 8.32823 3.79302 8.38271C3.92444 8.43719 4.04384 8.51703 4.14438 8.61769L6.06052 10.5338L6.4286 10.1658C6.60552 9.9895 6.73614 9.77226 6.80886 9.53334C6.88157 9.29443 6.89412 9.04125 6.84539 8.79631L6.79126 8.53108C6.73499 8.26564 6.74613 7.99033 6.82366 7.7303C6.9012 7.47028 7.04265 7.23383 7.23511 7.04255L8.16612 6.11154C8.42402 5.86473 8.76722 5.72697 9.12419 5.72697C9.48116 5.72697 9.82436 5.86473 10.0823 6.11154C10.1074 6.13691 10.1374 6.15704 10.1703 6.17078C10.2033 6.18452 10.2387 6.1916 10.2744 6.1916C10.3101 6.1916 10.3455 6.18452 10.3785 6.17078C10.4115 6.15704 10.4414 6.13691 10.4666 6.11154L10.8509 5.72723C10.8763 5.70207 10.8964 5.67214 10.9101 5.63916C10.9239 5.60618 10.9309 5.5708 10.9309 5.53508C10.9309 5.49935 10.9239 5.46397 10.9101 5.43099C10.8964 5.39801 10.8763 5.36808 10.8509 5.34292L6.63429 1.15338C6.60913 1.12801 6.57919 1.10788 6.54621 1.09414C6.51323 1.0804 6.47786 1.07333 6.44213 1.07333C6.4064 1.07333 6.37103 1.0804 6.33805 1.09414C6.30507 1.10788 6.27513 1.12801 6.24997 1.15338L5.86566 1.53769C5.8403 1.56285 5.82016 1.59279 5.80642 1.62577C5.79268 1.65875 5.78561 1.69412 5.78561 1.72985C5.78561 1.76558 5.79268 1.80095 5.80642 1.83393C5.82016 1.86691 5.8403 1.89684 5.86566 1.922C5.99168 2.04771 6.09167 2.19703 6.15988 2.36144C6.2281 2.52584 6.26322 2.70208 6.26322 2.88008C6.26322 3.05807 6.2281 3.23432 6.15988 3.39872C6.09167 3.56312 5.99168 3.71245 5.86566 3.83815L4.99961 4.7042C4.78609 4.91701 4.51756 5.06617 4.22407 5.135C3.93058 5.20383 3.62373 5.18961 3.33787 5.09393L3.143 5.02897C2.79767 4.91236 2.4266 4.89466 2.07173 4.97788C1.71686 5.0611 1.39234 5.24191 1.13484 5.49989L1.08071 5.55402L2.22824 6.70154C2.31691 6.80509 2.36325 6.93829 2.35799 7.07452C2.35273 7.21074 2.29625 7.33997 2.19985 7.43637C2.10345 7.53277 1.97423 7.58924 1.838 7.5945C1.70177 7.59977 1.56857 7.55343 1.46502 7.46475L0.317503 6.32264C0.216849 6.2221 0.137 6.10271 0.0825208 5.97129C0.0280414 5.83986 0 5.69899 0 5.55673C0 5.41446 0.0280414 5.27359 0.0825208 5.14217C0.137 5.01075 0.216849 4.89135 0.317503 4.79081L0.371631 4.73668C0.770351 4.3345 1.27394 4.05228 1.82511 3.92215C2.37629 3.79201 2.95292 3.81917 3.48943 4.00054L3.68429 4.06549C3.77782 4.09489 3.87758 4.09833 3.97291 4.07545C4.06824 4.05257 4.15557 4.00422 4.22557 3.93558L5.09163 3.06953C5.11699 3.04437 5.13713 3.01443 5.15087 2.98145C5.16461 2.94847 5.17168 2.9131 5.17168 2.87737C5.17168 2.84164 5.16461 2.80627 5.15087 2.77329C5.13713 2.74031 5.11699 2.71037 5.09163 2.68521C4.96561 2.55951 4.86562 2.41019 4.79741 2.24578C4.72919 2.08138 4.69407 1.90514 4.69407 1.72714C4.69407 1.54915 4.72919 1.3729 4.79741 1.2085C4.86562 1.0441 4.96561 0.894771 5.09163 0.76907L5.47594 0.384758C5.73384 0.137946 6.07704 0.000183105 6.43401 0.000183105C6.79098 0.000183105 7.13418 0.137946 7.39208 0.384758L11.6033 4.59595C11.7293 4.72165 11.8293 4.87098 11.8975 5.03538C11.9657 5.19978 12.0008 5.37603 12.0008 5.55402C12.0008 5.73201 11.9657 5.90826 11.8975 6.07266C11.8293 6.23706 11.7293 6.38639 11.6033 6.51209L11.219 6.8964C10.9611 7.14322 10.6179 7.28098 10.2609 7.28098C9.90392 7.28098 9.56072 7.14322 9.30282 6.8964C9.27766 6.87104 9.24772 6.8509 9.21474 6.83716C9.18176 6.82342 9.14639 6.81635 9.11066 6.81635C9.07493 6.81635 9.03956 6.82342 9.00658 6.83716C8.9736 6.8509 8.94366 6.87104 8.9185 6.8964L7.9875 7.82741C7.92509 7.89043 7.87913 7.96781 7.85364 8.05276C7.82816 8.1377 7.82394 8.22761 7.84135 8.31457L7.89548 8.5798C7.98046 8.99947 7.96018 9.43366 7.83644 9.84358C7.71271 10.2535 7.48938 10.6264 7.1864 10.929L6.81832 11.297C6.71778 11.3977 6.59839 11.4775 6.46696 11.532C6.33554 11.5865 6.19467 11.6145 6.05241 11.6145C5.91014 11.6145 5.76927 11.5865 5.63785 11.532C5.50643 11.4775 5.38703 11.3977 5.28649 11.297L3.38117 9.38631L1.08613 11.6814C1.03555 11.7315 0.975565 11.7712 0.909617 11.7981C0.843668 11.8251 0.773051 11.8387 0.701814 11.8383Z"/>
</g>
<defs>
<clipPath id="clip0">
<rect width="12" height="11.8382" fill="white"/>
</clipPath>
</defs>
</svg>
