<svg width="25" height="25" viewBox="0 0 25 25" fill="none" xmlns="http://www.w3.org/2000/svg">
<g id="svg / search">
<path id="Vector" d="M9.78264 19.5653C7.18812 19.5653 4.69987 18.5346 2.86527 16.7C1.03067 14.8654 0 12.3772 0 9.78264C0 7.18812 1.03067 4.69987 2.86527 2.86527C4.69987 1.03067 7.18812 0 9.78264 0C12.3772 0 14.8654 1.03067 16.7 2.86527C18.5346 4.69987 19.5653 7.18812 19.5653 9.78264C19.5653 12.3772 18.5346 14.8654 16.7 16.7C14.8654 18.5346 12.3772 19.5653 9.78264 19.5653ZM9.78264 17.3917C11.8007 17.3917 13.7361 16.59 15.163 15.163C16.59 13.7361 17.3917 11.8007 17.3917 9.78264C17.3917 7.7646 16.59 5.82921 15.163 4.40224C13.7361 2.97527 11.8007 2.17361 9.78264 2.17361C7.7646 2.17361 5.82921 2.97527 4.40224 4.40224C2.97527 5.82921 2.17361 7.7646 2.17361 9.78264C2.17361 11.8007 2.97527 13.7361 4.40224 15.163C5.82921 16.59 7.7646 17.3917 9.78264 17.3917Z" fill="#E5E5E5"/>
<path id="Vector_2" d="M16.3062 14.6973L23.991 22.3834L22.4548 23.9209L14.7687 16.2348L16.3062 14.6973Z" fill="#E5E5E5"/>
</g>
</svg>
