<svg width="30" height="30" viewBox="0 0 30 30" fill="none" xmlns="http://www.w3.org/2000/svg">
<g id="svg / sidebar">
<path id="Vector" d="M6.70997 10.4813H23.705C23.8691 10.4813 24.0317 10.449 24.1834 10.3862C24.3351 10.3234 24.4729 10.2313 24.589 10.1152C24.7051 9.99914 24.7972 9.86133 24.86 9.70966C24.9228 9.55799 24.9552 9.39543 24.9552 9.23126C24.9552 9.06709 24.9228 8.90453 24.86 8.75286C24.7972 8.60119 24.7051 8.46339 24.589 8.34731C24.4729 8.23124 24.3351 8.13917 24.1834 8.07636C24.0317 8.01355 23.8691 7.98124 23.705 7.98126H6.70997C6.5458 7.98124 6.38324 8.01355 6.23156 8.07636C6.07988 8.13917 5.94206 8.23124 5.82596 8.34731C5.70987 8.46339 5.61778 8.60119 5.55495 8.75286C5.49212 8.90453 5.45978 9.06709 5.45978 9.23126C5.45978 9.39543 5.49212 9.55799 5.55495 9.70966C5.61778 9.86133 5.70987 9.99914 5.82596 10.1152C5.94206 10.2313 6.07988 10.3234 6.23156 10.3862C6.38324 10.449 6.5458 10.4813 6.70997 10.4813ZM6.70997 16.25H23.705C24.0365 16.25 24.3544 16.1183 24.5889 15.8839C24.8233 15.6495 24.955 15.3315 24.955 15C24.955 14.6685 24.8233 14.3506 24.5889 14.1161C24.3544 13.8817 24.0365 13.75 23.705 13.75H6.70997C6.37845 13.75 6.06051 13.8817 5.82609 14.1161C5.59167 14.3506 5.45997 14.6685 5.45997 15C5.45997 15.3315 5.59167 15.6495 5.82609 15.8839C6.06051 16.1183 6.37845 16.25 6.70997 16.25ZM6.70997 22.0188H16.3812C16.5454 22.0188 16.708 21.9865 16.8596 21.9237C17.0113 21.8609 17.1491 21.7688 17.2652 21.6527C17.3813 21.5366 17.4734 21.3988 17.5362 21.2472C17.5991 21.0955 17.6314 20.9329 17.6314 20.7688C17.6314 20.6046 17.5991 20.442 17.5362 20.2904C17.4734 20.1387 17.3813 20.0009 17.2652 19.8848C17.1491 19.7687 17.0113 19.6767 16.8596 19.6139C16.708 19.5511 16.5454 19.5187 16.3812 19.5188H6.70997C6.37848 19.5188 6.06059 19.6505 5.82621 19.885C5.59183 20.1194 5.46016 20.4373 5.46016 20.7688C5.46016 21.1003 5.59183 21.4182 5.82621 21.6526C6.06059 21.887 6.37848 22.0187 6.70997 22.0188Z" fill="#F8F8F8"/>
</g>
</svg>
